PathFileType	4	(X/Y/Z)	C:\Users\Basilio\Documents\Thesis Gigler\squatting_fais\c3dfiles\054\SLS_front_pre3\markers_experimental.trc
DataRate	CameraRate	NumFrames	NumMarkers	Units	OrigDataRate	OrigDataStartFrame	OrigNumFrames
200.000000	200.000000	4	61	mm	200.000000	355	1423
Frame#	Time	FHD			LBHD			RBHD			C7			T10			CLAV			LSHO			LUUPA			LMUPA			LDUPA			LLEP			LMEP			LRAD			LUL			LRFIN			RSHO			RUPA1			RMUPA			RDUPA			RLEP			RMEP			RRAD			RUL			RUFIN			LASI			RASI			USACR			LSACR			RSACR			LTHI1			LTHI2			LTHI3			LTHI4			LLFC			LMFC			LTIB1			LTIB2			LTIB3			LTIB4			LLMAL			LMMAL			LHEE			LMT1			LMT2			LMT5			RTHI			RTHI2			RTHI3			RTHI4			RLFC			RMFC			RTIB1			RTIB2			RTIB3			RTIB4			RLMAL			RMMAL			RHEE			RMT1			RMT2			RMT5			
		X1	Y1	Z1	X2	Y2	Z2	X3	Y3	Z3	X4	Y4	Z4	X5	Y5	Z5	X6	Y6	Z6	X7	Y7	Z7	X8	Y8	Z8	X9	Y9	Z9	X10	Y10	Z10	X11	Y11	Z11	X12	Y12	Z12	X13	Y13	Z13	X14	Y14	Z14	X15	Y15	Z15	X16	Y16	Z16	X17	Y17	Z17	X18	Y18	Z18	X19	Y19	Z19	X20	Y20	Z20	X21	Y21	Z21	X22	Y22	Z22	X23	Y23	Z23	X24	Y24	Z24	X25	Y25	Z25	X26	Y26	Z26	X27	Y27	Z27	X28	Y28	Z28	X29	Y29	Z29	X30	Y30	Z30	X31	Y31	Z31	X32	Y32	Z32	X33	Y33	Z33	X34	Y34	Z34	X35	Y35	Z35	X36	Y36	Z36	X37	Y37	Z37	X38	Y38	Z38	X39	Y39	Z39	X40	Y40	Z40	X41	Y41	Z41	X42	Y42	Z42	X43	Y43	Z43	X44	Y44	Z44	X45	Y45	Z45	X46	Y46	Z46	X47	Y47	Z47	X48	Y48	Z48	X49	Y49	Z49	X50	Y50	Z50	X51	Y51	Z51	X52	Y52	Z52	X53	Y53	Z53	X54	Y54	Z54	X55	Y55	Z55	X56	Y56	Z56	X57	Y57	Z57	X58	Y58	Z58	X59	Y59	Z59	X60	Y60	Z60	X61	Y61	Z61	

356	1.775	-241.502670288086	1778.653198242188	-1082.788208007813	-400.691131591797	1720.239013671875	-1154.626342773438	-419.300018310547	1720.250244140625	-1015.256652832031	-444.9398193359376	1548.847900390625	-1071.388793945313	-458.4877319335939	1216.444458007813	-1068.093383789063	-299.0725402832032	1497.3125	-1077.022705078125	-377.4670715332032	1543.585815429688	-1230.157592773438	-262.9442138671876	1398.495483398438	-1373.35595703125	-225.6575622558594	1429.038818359375	-1370.401733398438	-199.5113372802735	1380.590454101563	-1395.97119140625	-143.1983337402344	1376.197875976563	-1404.599365234375	-142.2839508056641	1313.409057617188	-1355.827026367188	123.8542251586914	1371.823852539063	-1364.528198242188	123.9576644897461	1331.222290039063	-1432.458129882813	211.9227752685547	1377.6591796875	-1396.129516601563	-363.9564514160157	1542.57421875	-922.8956298828127	-227.6489562988282	1406.912475585938	-787.6306152343752	-188.0581817626953	1433.941528320313	-794.802673339844	-162.7009582519532	1383.240600585938	-771.923034667969	-119.4421081542969	1372.396118164063	-771.086608886719	-125.3969039916992	1318.0244140625	-824.0801391601565	152.3349761962891	1401.171142578125	-858.7153320312502	149.2682495117188	1360.331176757813	-790.3587646484377	231.1793823242188	1418.375244140625	-839.7993774414065	-253.2818145751954	1053.253295898438	-1166.87548828125	-272.8653869628907	1080.528442382813	-918.918395996094	-455.4451904296876	1125.1416015625	-1059.57421875	-455.520721435547	1090.929443359375	-1084.487182617188	-460.809783935547	1094.443237304688	-1028.095458984375	-299.4171142578126	794.9074707031252	-1232.387329101563	-254.2406768798829	722.8743896484376	-1221.311279296875	-208.6399841308594	735.5566406250001	-1213.580078125	-273.8930969238282	668.2573852539064	-1201.274169921875	-249.4381561279297	519.2012939453126	-1166.789916992188	-222.1050720214844	531.2639770507814	-1031.771728515625	-225.6345672607422	359.7347412109376	-1092.095703125	-278.4449768066407	312.1242980957032	-1143.171142578125	-240.9763183593751	308.3341674804688	-1117.452270507813	-259.5034179687501	238.4765167236329	-1073.831787109375	-336.9322814941407	112.9469070434571	-1097.90673828125	-306.5919189453126	135.0540771484375	-1007.668212890625	-407.2388000488282	105.7453994750977	-1037.42431640625	-198.0489654541016	55.04922103881837	-1017.36083984375	-189.092529296875	54.26888656616212	-1066.498901367188	-242.2750244140626	40.32733535766602	-1117.563232421875	-183.415771484375	807.5125122070315	-840.6575317382815	-120.1272811889649	788.7239990234377	-850.8448486328127	-96.24602508544925	808.7107543945315	-860.879333496094	-95.59494781494142	709.7709350585939	-863.8850708007815	-58.99647903442384	626.5737915039064	-869.7910766601565	-31.91266250610352	651.6005859375001	-1002.3115234375	29.88269424438477	548.1274414062501	-881.5158691406252	-6.155871868133547	453.236785888672	-848.7287597656252	38.07332611083985	463.6559143066407	-860.190612792969	69.66346740722658	423.4899291992189	-886.3839111328127	80.49620819091798	239.669418334961	-869.6875000000002	115.3095016479492	264.9590148925782	-953.6289672851565	36.0090675354004	190.6643981933594	-931.0918579101565	255.2183380126954	226.1822662353516	-928.904724121094	255.0926971435547	235.0840911865235	-881.5333251953127	209.4362945556641	205.7758178710938	-835.997009277344	
357	1.78	-241.4039001464844	1778.2685546875	-1082.55712890625	-400.4831542968751	1719.855712890625	-1154.407836914063	-419.2554016113282	1719.710571289063	-1015.07177734375	-444.8341369628907	1548.478393554688	-1071.104614257813	-458.7155761718751	1216.090454101563	-1068.136962890625	-299.0862731933594	1497.017211914063	-1076.850708007813	-377.2746887207032	1543.146484375	-1229.987426757813	-262.9138488769532	1398.301391601563	-1373.332763671875	-224.9913177490235	1429.102783203125	-1370.744140625	-199.4753417968751	1380.289916992188	-1395.837280273438	-143.1035461425782	1375.875	-1404.491577148438	-142.2583770751953	1313.097045898438	-1355.802368164063	123.973747253418	1371.376831054688	-1364.47216796875	124.0008544921875	1330.682250976563	-1432.331176757813	211.9951477050782	1377.121704101563	-1396.087890625	-363.8491210937501	1542.205810546875	-922.7476196289065	-227.4344787597657	1406.46826171875	-787.5349121093752	-187.8686218261719	1433.469970703125	-794.7029418945315	-162.6002349853516	1382.8291015625	-771.7856445312502	-119.4554824829102	1372.10009765625	-770.9270629882815	-125.387191772461	1317.668334960938	-823.9954833984377	152.3547973632813	1400.636474609375	-858.485778808594	149.2706909179688	1359.9755859375	-790.171325683594	231.1715393066407	1418.018432617188	-839.6766357421877	-253.7334136962891	1052.739990234375	-1166.907104492188	-273.1990356445313	1080.044311523438	-918.9787597656252	-455.9573974609376	1124.815673828125	-1059.665283203125	-455.6132812500001	1090.59814453125	-1084.652465820313	-461.1158447265626	1094.151733398438	-1028.113403320313	-299.3352050781251	794.6079101562502	-1232.575317382813	-253.960922241211	722.4145507812501	-1221.425659179688	-208.5656280517579	735.2550048828126	-1213.745727539063	-273.4337463378907	667.7833862304689	-1201.478271484375	-248.5867462158204	518.8194580078126	-1167.04443359375	-221.1881256103516	530.9678955078126	-1032.056884765625	-225.1133575439454	359.3588562011719	-1092.274658203125	-278.1423950195313	311.9505310058594	-1143.297241210938	-241.1426544189454	308.0621032714844	-1117.745483398438	-259.2101135253907	238.3661499023438	-1073.76171875	-336.9037170410157	112.9396209716797	-1097.91259765625	-306.5868835449219	135.0453186035157	-1007.682434082031	-407.2388610839845	105.7653503417969	-1037.429077148438	-198.0766601562501	55.06058883666994	-1017.33642578125	-189.0719909667969	54.31213760375978	-1066.493774414063	-242.236068725586	40.34576416015626	-1117.529907226563	-183.6906280517578	807.166687011719	-840.8204345703127	-120.4043426513672	788.3967285156252	-850.8634033203127	-96.31656646728518	808.5044555664065	-860.7817382812502	-95.75305175781251	709.4859619140626	-864.0161743164065	-59.10367965698244	626.3532714843751	-869.8674316406252	-32.0792579650879	651.3789672851564	-1002.386108398438	29.67535400390626	547.9760131835939	-881.6299438476565	-6.300506591796877	453.0744934082032	-848.7529296875002	37.86333847045899	463.3855285644532	-860.2150878906252	69.4728469848633	423.3011779785157	-886.4731445312502	80.4514617919922	239.3617858886719	-869.7781372070315	115.2300033569336	264.7560119628907	-953.8168945312502	35.91205596923829	190.3529357910157	-931.3820800781252	255.6778106689454	225.9494323730469	-929.1508789062502	254.9766082763672	234.7911071777344	-881.787780761719	209.3894958496094	205.4585418701172	-836.2554931640627	
358	1.785	-241.1947784423829	1777.754028320313	-1082.313110351563	-400.2835998535157	1719.473022460938	-1154.246704101563	-418.9028930664064	1719.15771484375	-1014.692016601563	-444.8006896972657	1548.134765625	-1070.964599609375	-458.9844360351564	1215.918212890625	-1068.10546875	-299.0505065917969	1496.426635742188	-1076.674926757813	-377.1186828613282	1542.761474609375	-1229.859985351563	-262.5578308105469	1398.013427734375	-1373.235595703125	-224.3346557617188	1428.579711914063	-1370.541259765625	-199.3739929199219	1379.967041015625	-1395.765502929688	-143.0433502197266	1375.511962890625	-1404.423095703125	-142.1991119384766	1312.716796875	-1355.76513671875	124.0498504638672	1370.921630859375	-1364.398681640625	124.0154342651367	1330.232055664063	-1432.293090820313	212.1440124511719	1376.511108398438	-1395.971435546875	-363.7171325683594	1541.732666015625	-922.6912231445315	-227.4218750000001	1405.958618164063	-787.455993652344	-188.0022430419922	1433.01806640625	-794.4810180664065	-162.759017944336	1382.362060546875	-771.3887939453127	-119.4221649169922	1371.779052734375	-770.7655029296877	-125.2575149536133	1317.125732421875	-823.772399902344	152.7407989501953	1400.11279296875	-858.3549804687502	149.2687683105469	1359.384399414063	-789.9031982421877	231.3303527832032	1417.511840820313	-839.4631958007815	-254.1466369628907	1052.199951171875	-1167.018676757813	-273.3994445800782	1079.53173828125	-919.1553344726565	-455.940155029297	1124.278686523438	-1059.738891601563	-455.9536132812501	1090.134033203125	-1084.771362304688	-461.3567504882814	1093.698974609375	-1028.181396484375	-298.9862976074219	794.0093994140627	-1232.649658203125	-253.7222595214844	722.0405273437501	-1221.71923828125	-208.4317626953126	735.0138549804689	-1213.8916015625	-273.1418457031251	667.3895874023439	-1201.677978515625	-247.6695404052735	518.4914550781251	-1167.329223632813	-220.5096130371094	530.7999877929689	-1032.170532226563	-224.6831970214844	359.1055603027344	-1092.187622070313	-277.8081054687501	311.8430175781251	-1143.361572265625	-240.6544494628907	307.8344116210938	-1117.528930664063	-259.0035095214844	238.2702941894532	-1073.777465820313	-336.9297790527344	112.8944473266602	-1097.900268554688	-306.5358886718751	135.040512084961	-1007.666076660156	-407.2467651367189	105.7522201538086	-1037.401489257813	-198.0480346679688	55.05484771728517	-1017.325561523438	-189.1102600097657	54.29887771606447	-1066.498168945313	-242.2628326416016	40.3374252319336	-1117.496826171875	-183.9293975830078	806.801940917969	-841.0075683593752	-120.8003540039063	788.0533447265627	-850.7056884765627	-96.92185974121097	807.980895996094	-861.0197753906252	-96.08584594726565	709.0795898437501	-864.0552368164065	-59.30136108398439	626.0054931640626	-869.930114746094	-32.32834625244141	651.1827392578126	-1002.386596679688	29.54711341857911	547.6855468750001	-881.7130126953127	-6.412652492523195	452.7832336425782	-848.8543701171877	37.79407501220704	463.076385498047	-860.3317871093752	69.48915100097658	423.0086669921876	-886.702575683594	80.32141876220705	239.0791625976563	-869.8677978515627	115.0800094604492	264.4948730468751	-953.9748535156252	35.82783126831055	190.10791015625	-931.5720214843752	255.4620819091797	225.7053833007813	-929.3828125000002	254.8500976562501	234.5819854736329	-882.001403808594	209.323959350586	205.1817321777344	-836.4287719726565	
359	1.79	-241.0535430908204	1777.260864257813	-1082.058471679688	-400.2771606445314	1719.18896484375	-1153.895751953125	-418.8393859863282	1718.84375	-1014.570739746094	-444.739471435547	1547.736450195313	-1070.863525390625	-459.3308410644532	1215.617431640625	-1068.083129882813	-298.8231811523438	1495.962036132813	-1076.54150390625	-377.0165710449219	1542.464721679688	-1229.728515625	-262.4555053710938	1397.644287109375	-1373.091552734375	-224.2031555175782	1428.105346679688	-1370.380859375	-199.1981811523438	1379.635009765625	-1395.73046875	-142.9485778808594	1375.126953125	-1404.300048828125	-142.093246459961	1312.396362304688	-1355.681518554688	124.1349792480469	1370.381713867188	-1364.341064453125	124.1454696655274	1329.773559570313	-1432.35205078125	211.8896789550782	1376.057495117188	-1395.968139648438	-363.6182250976563	1541.2216796875	-922.5989379882815	-227.4787139892579	1405.52294921875	-787.2652587890627	-188.0046997070313	1432.535400390625	-794.302185058594	-162.694320678711	1381.936767578125	-771.2608032226565	-119.31494140625	1371.326904296875	-770.6563110351565	-125.3597030639649	1316.703857421875	-823.4912109375002	152.8032989501953	1399.624267578125	-858.1738891601565	149.3089141845703	1358.998046875	-789.702331542969	231.2991180419922	1417.072509765625	-839.3379516601565	-254.5961303710938	1051.717651367188	-1166.973754882813	-273.5988769531251	1078.814208984375	-919.2471923828127	-456.3397827148439	1123.861572265625	-1059.731323242188	-456.4065856933595	1089.806396484375	-1084.786499023438	-461.5166015625001	1093.172729492188	-1028.288818359375	-298.9267272949219	793.4183349609377	-1232.891845703125	-253.5291595458985	721.6046752929689	-1222.142456054688	-208.3290557861329	734.7817382812501	-1214.050170898438	-272.8222961425782	667.0668334960939	-1201.885986328125	-246.9742431640626	518.0535278320314	-1167.414794921875	-219.4739532470704	530.5093383789064	-1032.576782226563	-223.9412536621094	358.9903869628907	-1092.535522460938	-277.4049682617188	311.7013854980469	-1143.464721679688	-239.7694396972657	307.7123107910157	-1117.9072265625	-258.7098693847657	238.044906616211	-1073.819702148438	-336.9279785156251	112.895492553711	-1097.899047851563	-306.5418090820313	135.0447235107422	-1007.670471191406	-407.1986083984376	105.7544860839844	-1037.376708984375	-198.0651550292969	55.03552246093751	-1017.327880859375	-189.0843505859375	54.29903030395509	-1066.498046875	-242.2721099853516	40.33079528808594	-1117.506591796875	-184.2567596435547	806.4675292968752	-841.1535644531252	-121.1874313354492	787.637390136719	-850.869567871094	-97.16081237792972	807.7641601562502	-860.8582153320315	-96.35272979736331	708.6924438476564	-864.0517578125002	-59.50590133666994	625.6895751953126	-869.9974365234377	-32.2284278869629	650.9313964843751	-1002.457580566406	29.35140037536622	547.3164062500001	-881.753601074219	-6.628652572631838	452.4866943359376	-849.0493164062502	37.5250473022461	462.8019104003907	-860.4375000000002	69.22828674316408	422.6733703613282	-886.7550048828127	80.26107788085939	238.878890991211	-869.9920043945315	114.9327926635742	264.2189636230469	-954.158874511719	35.75695037841798	189.8975067138672	-931.7952270507815	255.3105773925782	225.4746246337891	-929.5885009765627	254.6196746826172	234.3433380126954	-882.252136230469	209.2553253173829	204.9175872802735	-836.608581542969	
